<?xml version="1.0" encoding="utf-8"?>
<!-- Generator: Adobe Illustrator 17.0.0, SVG Export Plug-In . SVG Version: 6.00 Build 0)  -->
<!DOCTYPE svg PUBLIC "-//W3C//DTD SVG 1.1//EN" "http://www.w3.org/Graphics/SVG/1.1/DTD/svg11.dtd">
<svg version="1.1" id="Layer_1" xmlns="http://www.w3.org/2000/svg" xmlns:xlink="http://www.w3.org/1999/xlink" x="0px" y="0px"
	 width="322.124px" height="312.185px" viewBox="0 0 322.124 312.185" enable-background="new 0 0 322.124 312.185"
	 xml:space="preserve">
<g>
	<path fill="#3D68A9" d="M38.625,163.878c-6.087-4.299-6.087-11.271,0-15.572l61.595-43.512V79.089L6.654,145.187
		c-8.526,6.023-8.526,15.789,0,21.811l93.565,66.098v-25.705L38.625,163.878z"/>
	<path fill="#609CCC" d="M222.164,79.089v25.705l61.595,43.512c6.086,4.301,6.086,11.273,0,15.572l-61.595,43.513v25.705
		l93.566-66.098c8.525-6.022,8.525-15.788,0-21.811L222.164,79.089z"/>
	<g>
		<path fill="#3D68A9" d="M188.94,240.614c-8.851-12.471-25.538-17.412-40.057-10.968c-3.165,1.405-5.998,3.251-8.459,5.433
			c-1.146,1.016-2.212,2.103-3.191,3.253c-3.923,4.601-6.488,10.202-7.44,16.13c-0.975,6.06-0.266,12.462,2.41,18.492
			c4.172,9.397,12.218,15.864,21.425,18.36c-2.525,2.237-5.436,4.126-8.701,5.542c-11.668,5.063-24.66,2.806-33.868-4.732
			c-0.53-0.638-1.042-1.295-1.526-1.978c0.33,0.53,0.674,1.051,1.023,1.565c11.131,16.403,31.605,24.051,50.822,18.866
			c2.307-0.623,4.596-1.418,6.848-2.418c21.593-9.583,32.342-33.509,26.021-55.59c-0.466-2.105-1.146-4.195-2.055-6.242
			C191.284,244.28,190.189,242.373,188.94,240.614z"/>
		<path fill="#3D68A9" d="M190.824,29.942l-0.118,0.343c0.001-0.115,0.009-0.229,0.009-0.343C190.715,13.406,177.309,0,160.773,0
			c-16.537,0-29.942,13.406-29.942,29.942c0,0.668,0.03,1.33,0.073,1.987l5.744,156.508c0,13.324,10.801,24.125,24.126,24.125
			c13.324,0,24.126-10.801,24.126-24.125c0-0.117-0.007-0.232-0.009-0.348l0.118,0.348L190.824,29.942z M141.978,172.695l0.041,0.57
			c-0.139,0.172-0.276,0.347-0.411,0.522L141.978,172.695z"/>
	</g>
</g>
</svg>
