<?xml version="1.0" encoding="utf-8"?>
<!-- Generator: Adobe Illustrator 17.0.0, SVG Export Plug-In . SVG Version: 6.00 Build 0)  -->
<!DOCTYPE svg PUBLIC "-//W3C//DTD SVG 1.1//EN" "http://www.w3.org/Graphics/SVG/1.1/DTD/svg11.dtd">
<svg version="1.1" id="Layer_1" xmlns="http://www.w3.org/2000/svg" xmlns:xlink="http://www.w3.org/1999/xlink" x="0px" y="0px"
	 width="1792.939px" height="318.333px" viewBox="0 0 1792.939 318.333" enable-background="new 0 0 1792.939 318.333"
	 xml:space="preserve">
<g>
	<g>
		<path fill="#609CCC" d="M440.922,86.5c2.548,4.66,5.482,10.415,8.813,17.261c3.325,6.85,6.793,14.263,10.404,22.238
			c3.609,7.979,7.184,16.132,10.725,24.462c3.537,8.333,6.863,16.169,9.98,23.509c3.114-7.34,6.44-15.176,9.98-23.509
			c3.538-8.33,7.112-16.483,10.723-24.462c3.61-7.976,7.078-15.388,10.408-22.238c3.325-6.847,6.264-12.602,8.813-17.261h30.074
			c1.409,9.743,2.717,20.65,3.918,32.722c1.197,12.072,2.257,24.641,3.177,37.699c0.917,13.062,1.764,26.157,2.542,39.288
			c0.773,13.131,1.445,25.487,2.012,37.063h-32.192c-0.424-14.26-0.989-29.79-1.694-46.595c-0.709-16.801-1.768-33.744-3.178-50.83
			c-2.551,5.93-5.383,12.496-8.498,19.697c-3.117,7.201-6.197,14.402-9.242,21.603c-3.045,7.201-5.983,14.084-8.816,20.649
			c-2.832,6.566-5.241,12.179-7.224,16.838h-23.085c-1.986-4.659-4.392-10.271-7.225-16.838c-2.832-6.565-5.774-13.448-8.818-20.649
			c-3.045-7.201-6.126-14.402-9.24-21.603c-3.117-7.201-5.949-13.767-8.498-19.697c-1.413,17.085-2.472,34.029-3.177,50.83
			c-0.708,16.805-1.271,32.335-1.694,46.595h-32.192c0.563-11.576,1.234-23.933,2.013-37.063
			c0.773-13.131,1.621-26.226,2.541-39.288c0.916-13.058,1.976-25.627,3.177-37.699c1.198-12.072,2.505-22.979,3.918-32.722H440.922
			z"/>
		<path fill="#609CCC" d="M690.394,233.272c-1.635-5.1-3.389-10.338-5.269-15.712c-1.879-5.375-3.752-10.729-5.615-16.057h-57.323
			c-1.853,5.354-3.713,10.719-5.573,16.1c-1.863,5.381-3.597,10.605-5.201,15.669h-34.311c5.523-15.812,10.762-30.425,15.719-43.841
			c4.957-13.412,9.805-26.051,14.551-37.911s9.418-23.118,14.021-33.781c4.604-10.659,9.385-21.073,14.342-31.239h31.318
			c4.822,10.166,9.574,20.581,14.257,31.239c4.679,10.663,9.398,21.92,14.15,33.781s9.61,24.499,14.573,37.911
			c4.965,13.416,10.213,28.029,15.746,43.841H690.394z M650.699,119.751c-0.738,2.131-1.816,5.033-3.236,8.7
			c-1.42,3.67-3.035,7.909-4.848,12.717c-1.814,4.808-3.843,10.103-6.083,15.884s-4.517,11.844-6.831,18.188h41.972
			c-2.247-6.363-4.421-12.446-6.525-18.244s-4.106-11.103-6-15.914c-1.896-4.809-3.558-9.044-4.987-12.711
			C652.73,124.708,651.576,121.836,650.699,119.751z"/>
		<path fill="#609CCC" d="M787.621,84.806c22.025,0,38.896,3.918,50.618,11.754c11.718,7.836,17.579,20.015,17.579,36.534
			c0,10.309-2.367,18.674-7.096,25.098c-4.732,6.426-11.543,11.473-20.438,15.143c2.965,3.673,6.068,7.873,9.318,12.601
			c3.246,4.732,6.461,9.674,9.637,14.826c3.178,5.155,6.248,10.52,9.213,16.096c2.965,5.579,5.719,11.05,8.26,16.414h-36.935
			c-2.693-4.799-5.424-9.67-8.187-14.613c-2.764-4.941-5.596-9.743-8.502-14.402c-2.905-4.659-5.777-9.07-8.61-13.237
			c-2.837-4.163-5.673-7.941-8.505-11.33h-16.309v53.583h-33.039V88.618c7.201-1.41,14.646-2.399,22.344-2.965
			C774.665,85.09,781.549,84.806,787.621,84.806z M789.527,112.974c-2.402,0-4.555,0.073-6.46,0.212
			c-1.906,0.142-3.706,0.285-5.401,0.423v39.817h9.319c12.423,0,21.318-1.552,26.687-4.659c5.363-3.104,8.047-8.399,8.047-15.885
			c0-7.201-2.72-12.317-8.153-15.354C808.128,114.493,800.117,112.974,789.527,112.974z"/>
		<path fill="#609CCC" d="M992.635,86.5v28.168h-44.264v118.604H915.33V114.668h-44.264V86.5H992.635z"/>
		<path fill="#609CCC" d="M1112.297,233.272c-9.461-16.801-19.695-33.391-30.709-49.771c-11.014-16.377-22.734-31.838-35.158-46.382
			v96.154h-32.615V86.5h26.896c4.66,4.66,9.813,10.378,15.461,17.155c5.646,6.777,11.4,14.015,17.262,21.708
			c5.857,7.697,11.682,15.673,17.473,23.933c5.787,8.26,11.225,16.202,16.309,23.827V86.5h32.828v146.772H1112.297z"/>
		<path fill="#609CCC" d="M1272.395,233.272c-1.635-5.1-3.389-10.338-5.268-15.712c-1.881-5.375-3.754-10.729-5.615-16.057h-57.324
			c-1.854,5.354-3.713,10.719-5.572,16.1c-1.863,5.381-3.598,10.605-5.201,15.669h-34.311c5.521-15.812,10.762-30.425,15.719-43.841
			c4.957-13.412,9.805-26.051,14.551-37.911c4.744-11.86,9.418-23.118,14.021-33.781c4.602-10.659,9.385-21.073,14.342-31.239
			h31.318c4.822,10.166,9.574,20.581,14.256,31.239c4.68,10.663,9.398,21.92,14.15,33.781s9.611,24.499,14.574,37.911
			c4.965,13.416,10.213,28.029,15.746,43.841H1272.395z M1232.701,119.751c-0.738,2.131-1.818,5.033-3.236,8.7
			c-1.42,3.67-3.035,7.909-4.85,12.717c-1.813,4.808-3.842,10.103-6.082,15.884s-4.518,11.844-6.83,18.188h41.971
			c-2.246-6.363-4.42-12.446-6.525-18.244c-2.104-5.798-4.107-11.103-6-15.914c-1.896-4.809-3.557-9.044-4.986-12.711
			C1234.732,124.708,1233.578,121.836,1232.701,119.751z"/>
		<path fill="#609CCC" d="M1425.111,233.272c-9.461-16.801-19.695-33.391-30.709-49.771c-11.014-16.377-22.734-31.838-35.158-46.382
			v96.154h-32.615V86.5h26.896c4.66,4.66,9.813,10.378,15.461,17.155c5.646,6.777,11.4,14.015,17.262,21.708
			c5.857,7.697,11.682,15.673,17.473,23.933c5.787,8.26,11.225,16.202,16.309,23.827V86.5h32.828v146.772H1425.111z"/>
		<path fill="#609CCC" d="M1615.301,159.78c0,12.708-1.979,23.793-5.93,33.251c-3.955,9.461-9.568,17.297-16.838,23.509
			c-7.273,6.215-16.133,10.874-26.58,13.979c-10.451,3.104-22.168,4.659-35.158,4.659c-5.93,0-12.85-0.248-20.756-0.741
			c-7.908-0.496-15.672-1.516-23.297-3.071V88.406c7.625-1.41,15.566-2.363,23.826-2.859c8.262-0.493,15.355-0.741,21.285-0.741
			c12.566,0,23.967,1.413,34.205,4.236c10.236,2.826,19.025,7.274,26.369,13.343c7.34,6.073,12.988,13.839,16.943,23.297
			C1613.322,135.143,1615.301,146.51,1615.301,159.78z M1519.783,206.374c1.551,0.143,3.352,0.248,5.4,0.317
			c2.045,0.073,4.48,0.106,7.307,0.106c16.52,0,28.768-4.163,36.746-12.496c7.975-8.329,11.965-19.836,11.965-34.522
			c0-15.388-3.811-27.037-11.436-34.946c-7.625-7.906-19.697-11.86-36.217-11.86c-2.26,0-4.59,0.037-6.988,0.106
			c-2.404,0.073-4.66,0.248-6.777,0.529V206.374z"/>
		<path fill="#609CCC" d="M1782.617,159.78c0,12.568-1.873,23.615-5.613,33.145c-3.742,9.531-8.863,17.51-15.355,23.933
			c-6.496,6.427-14.227,11.262-23.191,14.508c-8.967,3.246-18.604,4.871-28.908,4.871c-10.027,0-19.486-1.625-28.381-4.871
			s-16.662-8.081-23.297-14.508c-6.639-6.423-11.861-14.401-15.674-23.933c-3.811-9.53-5.717-20.577-5.717-33.145
			c0-12.565,1.975-23.615,5.93-33.146c3.951-9.531,9.281-17.542,15.99-24.039c6.705-6.493,14.471-11.364,23.297-14.614
			c8.822-3.246,18.107-4.871,27.852-4.871c10.023,0,19.484,1.625,28.379,4.871c8.896,3.25,16.658,8.121,23.297,14.614
			c6.635,6.496,11.861,14.508,15.674,24.039S1782.617,147.215,1782.617,159.78z M1670.578,159.78c0,7.201,0.881,13.697,2.648,19.485
			c1.764,5.791,4.305,10.769,7.623,14.932c3.316,4.166,7.377,7.379,12.178,9.636c4.799,2.261,10.307,3.389,16.521,3.389
			c6.068,0,11.541-1.128,16.412-3.389c4.873-2.257,8.965-5.47,12.285-9.636c3.316-4.163,5.857-9.141,7.625-14.932
			c1.764-5.788,2.646-12.284,2.646-19.485c0-7.201-0.883-13.73-2.646-19.591c-1.768-5.857-4.309-10.871-7.625-15.037
			c-3.32-4.163-7.412-7.376-12.285-9.637c-4.871-2.257-10.344-3.389-16.412-3.389c-6.215,0-11.723,1.165-16.521,3.495
			c-4.801,2.33-8.861,5.579-12.178,9.742c-3.318,4.166-5.859,9.18-7.623,15.038C1671.459,146.262,1670.578,152.722,1670.578,159.78z
			"/>
	</g>
</g>
<g>
	<path fill="#3D68A9" d="M46.625,167.46c-6.087-4.299-6.087-11.271,0-15.572l61.595-43.512V82.671l-93.565,66.098
		c-8.526,6.023-8.526,15.789,0,21.811l93.565,66.098v-25.705L46.625,167.46z"/>
	<path fill="#609CCC" d="M230.164,82.671v25.705l61.595,43.512c6.086,4.301,6.086,11.273,0,15.572l-61.595,43.513v25.705
		l93.566-66.098c8.525-6.023,8.525-15.788,0-21.811L230.164,82.671z"/>
	<g>
		<path fill="#3D68A9" d="M196.94,244.196c-8.851-12.471-25.538-17.412-40.057-10.968c-3.165,1.405-5.998,3.251-8.459,5.433
			c-1.146,1.016-2.212,2.103-3.191,3.253c-3.923,4.602-6.488,10.202-7.44,16.13c-0.975,6.059-0.266,12.462,2.41,18.492
			c4.172,9.397,12.218,15.864,21.425,18.36c-2.525,2.237-5.436,4.126-8.701,5.542c-11.668,5.063-24.66,2.806-33.868-4.732
			c-0.53-0.638-1.042-1.295-1.526-1.979c0.33,0.53,0.674,1.051,1.023,1.566c11.131,16.403,31.605,24.051,50.822,18.866
			c2.307-0.623,4.596-1.418,6.848-2.418c21.593-9.583,32.342-33.509,26.021-55.59c-0.466-2.105-1.146-4.195-2.055-6.242
			C199.284,247.862,198.189,245.955,196.94,244.196z"/>
		<path fill="#3D68A9" d="M198.824,33.524l-0.118,0.343c0.001-0.115,0.009-0.229,0.009-0.343c0-16.536-13.406-29.942-29.942-29.942
			c-16.537,0-29.942,13.406-29.942,29.942c0,0.668,0.03,1.33,0.073,1.987l5.744,156.508c0,13.324,10.801,24.125,24.126,24.125
			c13.324,0,24.126-10.801,24.126-24.125c0-0.117-0.007-0.232-0.009-0.348l0.118,0.348L198.824,33.524z"/>
	</g>
</g>
</svg>
